# xmcd
#
# Track frame offsets:
#	150
#	11361
#	24077
#	34245
#	46049
#	58449
#	70930
#	81485
#	93510
#	104023
#	116772
#	128702
#	137654
#	148650
#	160392
#	170366
#	182811
#	193175
#	205675
#	217156
#
# Disc length: 3015 seconds
#
# Revision: 0
# Processed by: cddbd v1.5.2PL0 Copyright (c) Steve Scherf et al.
# Submitted via: audiograbber 1.83.01
#
DISCID=290bc514
DTITLE=Lita Roza - How Much Is That Doggie
DYEAR=1900
DGENRE=
TTITLE0=Oakie Boogie
TTITLE1=Raminay
TTITLE2=How Much Is That Doggie In The Window
TTITLE3=Tell Me We'll Meet Again
TTITLE4=Seven Lonely Days
TTITLE5=No One Will Ever Know
TTITLE6=Crazy Man, Crazy
TTITLE7=Oo ! What You Do To Me
TTITLE8=Changing Partners
TTITLE9=Just A Dream Or Two Ago
TTITLE10=Make Love To Me
TTITLE11=Bell Bottom Blues
TTITLE12=Secret Love
TTITLE13=Young At Heart
TTITLE14=Skinny Minnie Fishtail
TTITLE15=My Kid Brother
TTITLE16=Call Off The Wedding
TTITLE17=The "Mama Doll" Song
TTITLE18=Heartbeat
TTITLE19=Leave Me Alone
EXTD=
EXTT0=
EXTT1=
EXTT2=
EXTT3=
EXTT4=
EXTT5=
EXTT6=
EXTT7=
EXTT8=
EXTT9=
EXTT10=
EXTT11=
EXTT12=
EXTT13=
EXTT14=
EXTT15=
EXTT16=
EXTT17=
EXTT18=
EXTT19=
PLAYORDER=
